solid support douille tube fluo
facet normal -1.5784034661999645e-16 2.951922073405336e-15 1.0
  outer loop
    vertex 9.000000000000005 4.999999999999923 1.5000000000000875
    vertex 5.49999999999999 20.000000000000007 1.5000000000000084
    vertex 5.49999999999999 4.999999999999923 1.5000000000000875
  endloop
endfacet
facet normal -1.5784034661999645e-16 2.951922073405336e-15 1.0
  outer loop
    vertex 37.99999999999998 4.999999999999878 1.5000000000000762
    vertex 34.49999999999996 18.600000000000012 1.5000000000000762
    vertex 34.49999999999996 4.999999999999878 1.5000000000000762
  endloop
endfacet
facet normal -1.5784034661999645e-16 2.951922073405336e-15 1.0
  outer loop
    vertex 43.499999999999964 4.999999999999878 1.5000000000000648
    vertex 39.99999999999997 19.99999999999992 1.5000000000000537
    vertex 39.99999999999997 4.999999999999878 1.5000000000000762
  endloop
endfacet
facet normal -1.5784034661999645e-16 2.951922073405336e-15 1.0
  outer loop
    vertex 3.499999999999994 4.999999999999923 1.5000000000000875
    vertex 0.0 28.60000000000015 1.4999999999999973
    vertex 0.0 4.999999999999923 1.5000000000000875
  endloop
endfacet
facet normal -1.5784034661999645e-16 2.951922073405336e-15 1.0
  outer loop
    vertex 0.0 28.60000000000015 1.4999999999999973
    vertex 3.499999999999994 4.999999999999923 1.5000000000000875
    vertex 3.499999999999994 20.000000000000007 1.5000000000000084
  endloop
endfacet
facet normal -1.5784034661999645e-16 2.951922073405336e-15 1.0
  outer loop
    vertex 0.0 28.60000000000015 1.4999999999999973
    vertex 3.499999999999994 20.000000000000007 1.5000000000000084
    vertex 43.499999999999964 28.60000000000015 1.5000000000000084
  endloop
endfacet
facet normal -1.5784034661999645e-16 2.951922073405336e-15 1.0
  outer loop
    vertex 43.499999999999964 28.60000000000015 1.5000000000000084
    vertex 3.499999999999994 20.000000000000007 1.5000000000000084
    vertex 5.49999999999999 20.000000000000007 1.5000000000000084
  endloop
endfacet
facet normal -1.5784034661999645e-16 2.951922073405336e-15 1.0
  outer loop
    vertex 43.499999999999964 28.60000000000015 1.5000000000000084
    vertex 5.49999999999999 20.000000000000007 1.5000000000000084
    vertex 9.000000000000005 18.600000000000012 1.5000000000000762
  endloop
endfacet
facet normal -1.5784034661999645e-16 2.951922073405336e-15 1.0
  outer loop
    vertex 9.000000000000005 18.600000000000012 1.5000000000000762
    vertex 5.49999999999999 20.000000000000007 1.5000000000000084
    vertex 9.000000000000005 4.999999999999923 1.5000000000000875
  endloop
endfacet
facet normal -1.5784034661999645e-16 2.951922073405336e-15 1.0
  outer loop
    vertex 43.499999999999964 28.60000000000015 1.5000000000000084
    vertex 9.000000000000005 18.600000000000012 1.5000000000000762
    vertex 34.49999999999996 18.600000000000012 1.5000000000000762
  endloop
endfacet
facet normal -1.5784034661999645e-16 2.951922073405336e-15 1.0
  outer loop
    vertex 43.499999999999964 28.60000000000015 1.5000000000000084
    vertex 34.49999999999996 18.600000000000012 1.5000000000000762
    vertex 37.99999999999998 19.99999999999992 1.5000000000000537
  endloop
endfacet
facet normal -1.5784034661999645e-16 2.951922073405336e-15 1.0
  outer loop
    vertex 37.99999999999998 19.99999999999992 1.5000000000000537
    vertex 34.49999999999996 18.600000000000012 1.5000000000000762
    vertex 37.99999999999998 4.999999999999878 1.5000000000000762
  endloop
endfacet
facet normal -1.5784034661999645e-16 2.951922073405336e-15 1.0
  outer loop
    vertex 43.499999999999964 28.60000000000015 1.5000000000000084
    vertex 37.99999999999998 19.99999999999992 1.5000000000000537
    vertex 39.99999999999997 19.99999999999992 1.5000000000000537
  endloop
endfacet
facet normal -1.5784034661999645e-16 2.951922073405336e-15 1.0
  outer loop
    vertex 43.499999999999964 28.60000000000015 1.5000000000000084
    vertex 39.99999999999997 19.99999999999992 1.5000000000000537
    vertex 43.499999999999964 4.999999999999878 1.5000000000000648
  endloop
endfacet
facet normal 1.0 -0.0 -0.0
  outer loop
    vertex 43.499999999999964 0.0 9.023892744153272e-14
    vertex 43.499999999999964 4.999999999999878 1.5000000000000648
    vertex 43.499999999999964 0.0 31.500000000000043
  endloop
endfacet
facet normal 1.0 -0.0 -0.0
  outer loop
    vertex 43.499999999999964 4.999999999999878 1.5000000000000648
    vertex 43.499999999999964 0.0 9.023892744153272e-14
    vertex 43.499999999999964 28.600000000000016 9.023892744153272e-14
  endloop
endfacet
facet normal 1.0 -0.0 -0.0
  outer loop
    vertex 43.499999999999964 4.999999999999878 1.5000000000000648
    vertex 43.499999999999964 28.600000000000016 9.023892744153272e-14
    vertex 43.499999999999964 28.60000000000015 1.5000000000000084
  endloop
endfacet
facet normal 1.0 -0.0 -0.0
  outer loop
    vertex 43.499999999999964 4.999999999999991 31.5000000000001
    vertex 43.499999999999964 0.0 31.500000000000043
    vertex 43.499999999999964 4.999999999999878 1.5000000000000648
  endloop
endfacet
facet normal 5.186145255260408e-16 1.0 -7.519910620128237e-14
  outer loop
    vertex 0.0 28.600000000000062 1.127986593019159e-13
    vertex 43.499999999999964 28.60000000000015 1.5000000000000084
    vertex 43.499999999999964 28.600000000000016 9.023892744153272e-14
  endloop
endfacet
facet normal 5.186145255260408e-16 1.0 -7.519910620128237e-14
  outer loop
    vertex 43.499999999999964 28.60000000000015 1.5000000000000084
    vertex 0.0 28.600000000000062 1.127986593019159e-13
    vertex 0.0 28.60000000000015 1.4999999999999973
  endloop
endfacet
facet normal -1.0 -7.703300793558135e-17 -3.985765164323276e-16
  outer loop
    vertex 0.0 4.999999999999923 1.5000000000000875
    vertex 0.0 28.600000000000062 1.127986593019159e-13
    vertex 0.0 0.0 0.0
  endloop
endfacet
facet normal -1.0 -7.703300793558135e-17 -3.985765164323276e-16
  outer loop
    vertex 0.0 28.600000000000062 1.127986593019159e-13
    vertex 0.0 4.999999999999923 1.5000000000000875
    vertex 0.0 28.60000000000015 1.4999999999999973
  endloop
endfacet
facet normal -1.0 -7.703300793558135e-17 -3.985765164323276e-16
  outer loop
    vertex -2.255973186038318e-14 5.000000000000013 31.50000000000007
    vertex 0.0 0.0 0.0
    vertex 0.0 0.0 31.500000000000043
  endloop
endfacet
facet normal -1.0 -7.703300793558135e-17 -3.985765164323276e-16
  outer loop
    vertex 0.0 0.0 0.0
    vertex -2.255973186038318e-14 5.000000000000013 31.50000000000007
    vertex 0.0 4.999999999999923 1.5000000000000875
  endloop
endfacet
facet normal -1.0 0.0 0.0
  outer loop
    vertex 34.49999999999996 18.600000000000012 1.5000000000000762
    vertex 34.49999999999996 4.9999999999999005 1.0151879337172431e-13
    vertex 34.49999999999996 4.999999999999878 1.5000000000000762
  endloop
endfacet
facet normal -1.0 0.0 0.0
  outer loop
    vertex 34.49999999999996 4.9999999999999005 1.0151879337172431e-13
    vertex 34.49999999999996 18.600000000000012 1.5000000000000762
    vertex 34.49999999999996 18.59999999999992 5.639932965095795e-14
  endloop
endfacet
facet normal 1.0 -0.0 -0.0
  outer loop
    vertex 9.000000000000005 4.999999999999946 7.895906151134113e-14
    vertex 9.000000000000005 18.600000000000012 1.5000000000000762
    vertex 9.000000000000005 4.999999999999923 1.5000000000000875
  endloop
endfacet
facet normal 1.0 -0.0 -0.0
  outer loop
    vertex 9.000000000000005 18.600000000000012 1.5000000000000762
    vertex 9.000000000000005 4.999999999999946 7.895906151134113e-14
    vertex 9.000000000000005 18.599999999999966 3.3839597790574766e-14
  endloop
endfacet
facet normal -8.846953670738717e-16 -1.0 4.5119463720765305e-14
  outer loop
    vertex 34.49999999999996 18.59999999999992 5.639932965095795e-14
    vertex 9.000000000000005 18.600000000000012 1.5000000000000762
    vertex 9.000000000000005 18.599999999999966 3.3839597790574766e-14
  endloop
endfacet
facet normal -8.846953670738717e-16 -1.0 4.5119463720765305e-14
  outer loop
    vertex 9.000000000000005 18.600000000000012 1.5000000000000762
    vertex 34.49999999999996 18.59999999999992 5.639932965095795e-14
    vertex 34.49999999999996 18.600000000000012 1.5000000000000762
  endloop
endfacet
facet normal 1.163214728351739e-15 1.0 -2.6515291781953238e-15
  outer loop
    vertex 9.000000000000005 4.999999999999923 1.5000000000000875
    vertex 34.49999999999996 4.9999999999999005 1.0151879337172431e-13
    vertex 9.000000000000005 4.999999999999946 7.895906151134113e-14
  endloop
endfacet
facet normal 1.163214728351739e-15 1.0 -2.6515291781953238e-15
  outer loop
    vertex 34.49999999999996 4.9999999999999005 1.0151879337172431e-13
    vertex 9.000000000000005 4.999999999999923 1.5000000000000875
    vertex 34.49999999999996 4.999999999999878 1.5000000000000762
  endloop
endfacet
facet normal 1.163214728351739e-15 1.0 -2.6515291781953238e-15
  outer loop
    vertex 34.49999999999996 4.999999999999878 1.5000000000000762
    vertex 9.000000000000005 4.999999999999923 1.5000000000000875
    vertex 37.99999999999998 4.999999999999878 1.5000000000000762
  endloop
endfacet
facet normal 1.163214728351739e-15 1.0 -2.6515291781953238e-15
  outer loop
    vertex 37.99999999999998 4.999999999999878 1.5000000000000762
    vertex 9.000000000000005 4.999999999999923 1.5000000000000875
    vertex 37.99999999999998 4.9999999999999005 16.500000000000107
  endloop
endfacet
facet normal 1.163214728351739e-15 1.0 -2.6515291781953238e-15
  outer loop
    vertex 37.99999999999998 4.9999999999999005 16.500000000000107
    vertex 9.000000000000005 4.999999999999923 1.5000000000000875
    vertex 31.649999999999977 4.9999999999999005 13.508141571295852
  endloop
endfacet
facet normal 1.163214728351739e-15 1.0 -2.6515291781953238e-15
  outer loop
    vertex 31.649999999999977 4.9999999999999005 13.508141571295852
    vertex 9.000000000000005 4.999999999999923 1.5000000000000875
    vertex 31.095283803735796 4.999999999999946 13.278370599535164
  endloop
endfacet
facet normal 1.163214728351739e-15 1.0 -2.6515291781953238e-15
  outer loop
    vertex 31.095283803735796 4.999999999999946 13.278370599535164
    vertex 9.000000000000005 4.999999999999923 1.5000000000000875
    vertex 30.499999999999968 4.999999999999968 13.200000000000088
  endloop
endfacet
facet normal 1.163214728351739e-15 1.0 -2.6515291781953238e-15
  outer loop
    vertex 30.499999999999968 4.999999999999968 13.200000000000088
    vertex 9.000000000000005 4.999999999999923 1.5000000000000875
    vertex 12.999999999999998 4.999999999999991 13.200000000000077
  endloop
endfacet
facet normal 1.163214728351739e-15 1.0 -2.6515291781953238e-15
  outer loop
    vertex 37.99999999999998 4.9999999999999005 16.500000000000107
    vertex 31.649999999999977 4.9999999999999005 13.508141571295852
    vertex 32.126345596729024 4.999999999999991 13.873654403271003
  endloop
endfacet
facet normal 1.163214728351739e-15 1.0 -2.6515291781953238e-15
  outer loop
    vertex 37.99999999999998 4.9999999999999005 16.500000000000107
    vertex 32.126345596729024 4.999999999999991 13.873654403271003
    vertex 32.491858428704205 4.999999999999991 14.35000000000003
  endloop
endfacet
facet normal 1.163214728351739e-15 1.0 -2.6515291781953238e-15
  outer loop
    vertex 37.99999999999998 4.9999999999999005 16.500000000000107
    vertex 32.491858428704205 4.999999999999991 14.35000000000003
    vertex 32.721629400464856 4.999999999999991 14.904716196264268
  endloop
endfacet
facet normal 1.163214728351739e-15 1.0 -2.6515291781953238e-15
  outer loop
    vertex 37.99999999999998 4.9999999999999005 16.500000000000107
    vertex 32.721629400464856 4.999999999999991 14.904716196264268
    vertex 32.79999999999998 4.999999999999946 15.500000000000085
  endloop
endfacet
facet normal 1.163214728351739e-15 1.0 -2.6515291781953238e-15
  outer loop
    vertex 37.99999999999998 4.9999999999999005 16.500000000000107
    vertex 32.79999999999998 4.999999999999946 15.500000000000085
    vertex 32.79999999999998 4.999999999999968 21.500000000000075
  endloop
endfacet
facet normal 1.163214728351739e-15 1.0 -2.6515291781953238e-15
  outer loop
    vertex 37.99999999999998 4.9999999999999005 16.500000000000107
    vertex 32.79999999999998 4.999999999999968 21.500000000000075
    vertex 39.99999999999997 4.9999999999999005 16.500000000000107
  endloop
endfacet
facet normal 1.163214728351739e-15 1.0 -2.6515291781953238e-15
  outer loop
    vertex 13.595283803735782 4.999999999999968 13.278370599535146
    vertex 30.499999999999968 4.999999999999968 13.200000000000088
    vertex 12.999999999999998 4.999999999999991 13.200000000000077
  endloop
endfacet
facet normal 1.163214728351739e-15 1.0 -2.6515291781953238e-15
  outer loop
    vertex 30.499999999999968 4.999999999999968 13.200000000000088
    vertex 13.595283803735782 4.999999999999968 13.278370599535146
    vertex 29.904716196264207 4.999999999999946 13.278370599535164
  endloop
endfacet
facet normal 1.163214728351739e-15 1.0 -2.6515291781953238e-15
  outer loop
    vertex 29.904716196264207 4.999999999999946 13.278370599535164
    vertex 13.595283803735782 4.999999999999968 13.278370599535146
    vertex 14.149999999999963 4.999999999999923 13.508141571295846
  endloop
endfacet
facet normal 1.163214728351739e-15 1.0 -2.6515291781953238e-15
  outer loop
    vertex 29.904716196264207 4.999999999999946 13.278370599535164
    vertex 14.149999999999963 4.999999999999923 13.508141571295846
    vertex 29.34999999999998 4.9999999999999005 13.508141571295852
  endloop
endfacet
facet normal 1.163214728351739e-15 1.0 -2.6515291781953238e-15
  outer loop
    vertex 29.34999999999998 4.9999999999999005 13.508141571295852
    vertex 14.149999999999963 4.999999999999923 13.508141571295846
    vertex 14.626345596729058 4.999999999999991 13.873654403271003
  endloop
endfacet
facet normal 1.163214728351739e-15 1.0 -2.6515291781953238e-15
  outer loop
    vertex 29.34999999999998 4.9999999999999005 13.508141571295852
    vertex 14.626345596729058 4.999999999999991 13.873654403271003
    vertex 28.87365440327093 4.999999999999991 13.873654403271003
  endloop
endfacet
facet normal 1.163214728351739e-15 1.0 -2.6515291781953238e-15
  outer loop
    vertex 28.87365440327093 4.999999999999991 13.873654403271003
    vertex 14.626345596729058 4.999999999999991 13.873654403271003
    vertex 14.991858428704191 4.999999999999991 14.35000000000004
  endloop
endfacet
facet normal 1.163214728351739e-15 1.0 -2.6515291781953238e-15
  outer loop
    vertex 28.87365440327093 4.999999999999991 13.873654403271003
    vertex 14.991858428704191 4.999999999999991 14.35000000000004
    vertex 28.5081415712958 4.999999999999991 14.35000000000004
  endloop
endfacet
facet normal 1.163214728351739e-15 1.0 -2.6515291781953238e-15
  outer loop
    vertex 28.5081415712958 4.999999999999991 14.35000000000004
    vertex 14.991858428704191 4.999999999999991 14.35000000000004
    vertex 15.22162940046484 5.0000000000000355 14.904716196264268
  endloop
endfacet
facet normal 1.163214728351739e-15 1.0 -2.6515291781953238e-15
  outer loop
    vertex 28.5081415712958 4.999999999999991 14.35000000000004
    vertex 15.22162940046484 5.0000000000000355 14.904716196264268
    vertex 28.278370599535148 5.0000000000000355 14.904716196264268
  endloop
endfacet
facet normal 1.163214728351739e-15 1.0 -2.6515291781953238e-15
  outer loop
    vertex 28.278370599535148 5.0000000000000355 14.904716196264268
    vertex 15.22162940046484 5.0000000000000355 14.904716196264268
    vertex 15.299999999999972 4.999999999999946 15.500000000000068
  endloop
endfacet
facet normal 1.163214728351739e-15 1.0 -2.6515291781953238e-15
  outer loop
    vertex 28.278370599535148 5.0000000000000355 14.904716196264268
    vertex 15.299999999999972 4.999999999999946 15.500000000000068
    vertex 28.200000000000017 4.999999999999946 15.500000000000085
  endloop
endfacet
facet normal 1.163214728351739e-15 1.0 -2.6515291781953238e-15
  outer loop
    vertex 28.200000000000017 4.999999999999946 15.500000000000085
    vertex 15.299999999999972 4.999999999999946 15.500000000000068
    vertex 15.299999999999972 4.999999999999991 21.500000000000075
  endloop
endfacet
facet normal 1.163214728351739e-15 1.0 -2.6515291781953238e-15
  outer loop
    vertex 28.200000000000017 4.999999999999946 15.500000000000085
    vertex 15.299999999999972 4.999999999999991 21.500000000000075
    vertex 28.200000000000017 4.999999999999968 21.500000000000075
  endloop
endfacet
facet normal 1.163214728351739e-15 1.0 -2.6515291781953238e-15
  outer loop
    vertex 28.200000000000017 4.999999999999968 21.500000000000075
    vertex 15.299999999999972 4.999999999999991 21.500000000000075
    vertex 15.22162940046484 4.999999999999991 22.095283803735903
  endloop
endfacet
facet normal 1.163214728351739e-15 1.0 -2.6515291781953238e-15
  outer loop
    vertex 28.200000000000017 4.999999999999968 21.500000000000075
    vertex 15.22162940046484 4.999999999999991 22.095283803735903
    vertex 28.278370599535148 4.999999999999991 22.095283803735903
  endloop
endfacet
facet normal 1.163214728351739e-15 1.0 -2.6515291781953238e-15
  outer loop
    vertex 28.278370599535148 4.999999999999991 22.095283803735903
    vertex 15.22162940046484 4.999999999999991 22.095283803735903
    vertex 14.991858428704191 4.999999999999968 22.65000000000002
  endloop
endfacet
facet normal 1.163214728351739e-15 1.0 -2.6515291781953238e-15
  outer loop
    vertex 28.278370599535148 4.999999999999991 22.095283803735903
    vertex 14.991858428704191 4.999999999999968 22.65000000000002
    vertex 28.5081415712958 4.999999999999946 22.650000000000038
  endloop
endfacet
facet normal 1.163214728351739e-15 1.0 -2.6515291781953238e-15
  outer loop
    vertex 28.5081415712958 4.999999999999946 22.650000000000038
    vertex 14.991858428704191 4.999999999999968 22.65000000000002
    vertex 14.626345596729058 4.999999999999991 23.126345596729173
  endloop
endfacet
facet normal 1.163214728351739e-15 1.0 -2.6515291781953238e-15
  outer loop
    vertex 28.5081415712958 4.999999999999946 22.650000000000038
    vertex 14.626345596729058 4.999999999999991 23.126345596729173
    vertex 28.87365440327093 4.999999999999991 23.12634559672916
  endloop
endfacet
facet normal 1.163214728351739e-15 1.0 -2.6515291781953238e-15
  outer loop
    vertex 28.87365440327093 4.999999999999991 23.12634559672916
    vertex 14.626345596729058 4.999999999999991 23.126345596729173
    vertex 29.350000000000026 4.999999999999991 23.491858428704333
  endloop
endfacet
facet normal 1.163214728351739e-15 1.0 -2.6515291781953238e-15
  outer loop
    vertex 29.350000000000026 4.999999999999991 23.491858428704333
    vertex 14.626345596729058 4.999999999999991 23.126345596729173
    vertex 14.149999999999963 4.999999999999991 23.491858428704344
  endloop
endfacet
facet normal 1.163214728351739e-15 1.0 -2.6515291781953238e-15
  outer loop
    vertex 29.350000000000026 4.999999999999991 23.491858428704333
    vertex 14.149999999999963 4.999999999999991 23.491858428704344
    vertex 29.904716196264207 4.999999999999968 23.721629400464938
  endloop
endfacet
facet normal 1.163214728351739e-15 1.0 -2.6515291781953238e-15
  outer loop
    vertex 29.904716196264207 4.999999999999968 23.721629400464938
    vertex 14.149999999999963 4.999999999999991 23.491858428704344
    vertex 13.595283803735782 4.999999999999991 23.721629400464916
  endloop
endfacet
facet normal 1.163214728351739e-15 1.0 -2.6515291781953238e-15
  outer loop
    vertex 29.904716196264207 4.999999999999968 23.721629400464938
    vertex 13.595283803735782 4.999999999999991 23.721629400464916
    vertex 12.999999999999998 5.000000000000081 23.800000000000026
  endloop
endfacet
facet normal 1.163214728351739e-15 1.0 -2.6515291781953238e-15
  outer loop
    vertex 29.904716196264207 4.999999999999968 23.721629400464938
    vertex 12.999999999999998 5.000000000000081 23.800000000000026
    vertex 30.499999999999968 5.000000000000081 23.80000000000002
  endloop
endfacet
facet normal 1.163214728351739e-15 1.0 -2.6515291781953238e-15
  outer loop
    vertex -2.255973186038318e-14 5.000000000000013 31.50000000000007
    vertex 3.499999999999994 4.999999999999923 1.5000000000000875
    vertex 0.0 4.999999999999923 1.5000000000000875
  endloop
endfacet
facet normal 1.163214728351739e-15 1.0 -2.6515291781953238e-15
  outer loop
    vertex 3.499999999999994 4.999999999999923 1.5000000000000875
    vertex -2.255973186038318e-14 5.000000000000013 31.50000000000007
    vertex 3.499999999999994 4.999999999999946 16.500000000000117
  endloop
endfacet
facet normal 1.163214728351739e-15 1.0 -2.6515291781953238e-15
  outer loop
    vertex 3.499999999999994 4.999999999999946 16.500000000000117
    vertex -2.255973186038318e-14 5.000000000000013 31.50000000000007
    vertex 5.49999999999999 4.999999999999946 16.500000000000117
  endloop
endfacet
facet normal 1.163214728351739e-15 1.0 -2.6515291781953238e-15
  outer loop
    vertex 5.49999999999999 4.999999999999946 16.500000000000117
    vertex -2.255973186038318e-14 5.000000000000013 31.50000000000007
    vertex 10.69999999999998 4.999999999999991 21.500000000000057
  endloop
endfacet
facet normal 1.163214728351739e-15 1.0 -2.6515291781953238e-15
  outer loop
    vertex 10.69999999999998 4.999999999999991 21.500000000000057
    vertex -2.255973186038318e-14 5.000000000000013 31.50000000000007
    vertex 10.778370599535156 4.999999999999991 22.09528380373589
  endloop
endfacet
facet normal 1.163214728351739e-15 1.0 -2.6515291781953238e-15
  outer loop
    vertex 10.778370599535156 4.999999999999991 22.09528380373589
    vertex -2.255973186038318e-14 5.000000000000013 31.50000000000007
    vertex 11.008141571295761 4.999999999999968 22.65000000000002
  endloop
endfacet
facet normal 1.163214728351739e-15 1.0 -2.6515291781953238e-15
  outer loop
    vertex 11.008141571295761 4.999999999999968 22.65000000000002
    vertex -2.255973186038318e-14 5.000000000000013 31.50000000000007
    vertex 11.37365440327094 5.000000000000013 23.126345596729145
  endloop
endfacet
facet normal 1.163214728351739e-15 1.0 -2.6515291781953238e-15
  outer loop
    vertex 11.37365440327094 5.000000000000013 23.126345596729145
    vertex -2.255973186038318e-14 5.000000000000013 31.50000000000007
    vertex 11.849999999999989 4.999999999999991 23.49185842870433
  endloop
endfacet
facet normal 1.163214728351739e-15 1.0 -2.6515291781953238e-15
  outer loop
    vertex 11.849999999999989 4.999999999999991 23.49185842870433
    vertex -2.255973186038318e-14 5.000000000000013 31.50000000000007
    vertex 12.40471619626417 4.999999999999991 23.721629400464916
  endloop
endfacet
facet normal 1.163214728351739e-15 1.0 -2.6515291781953238e-15
  outer loop
    vertex 12.40471619626417 4.999999999999991 23.721629400464916
    vertex -2.255973186038318e-14 5.000000000000013 31.50000000000007
    vertex 12.999999999999998 5.000000000000081 23.800000000000026
  endloop
endfacet
facet normal 1.163214728351739e-15 1.0 -2.6515291781953238e-15
  outer loop
    vertex 39.99999999999997 4.999999999999878 1.5000000000000762
    vertex 43.499999999999964 4.999999999999991 31.5000000000001
    vertex 43.499999999999964 4.999999999999878 1.5000000000000648
  endloop
endfacet
facet normal 1.163214728351739e-15 1.0 -2.6515291781953238e-15
  outer loop
    vertex 43.499999999999964 4.999999999999991 31.5000000000001
    vertex 39.99999999999997 4.999999999999878 1.5000000000000762
    vertex 39.99999999999997 4.9999999999999005 16.500000000000107
  endloop
endfacet
facet normal 1.163214728351739e-15 1.0 -2.6515291781953238e-15
  outer loop
    vertex 43.499999999999964 4.999999999999991 31.5000000000001
    vertex 39.99999999999997 4.9999999999999005 16.500000000000107
    vertex 32.79999999999998 4.999999999999968 21.500000000000075
  endloop
endfacet
facet normal 1.163214728351739e-15 1.0 -2.6515291781953238e-15
  outer loop
    vertex 43.499999999999964 4.999999999999991 31.5000000000001
    vertex 32.79999999999998 4.999999999999968 21.500000000000075
    vertex 32.721629400464856 4.999999999999991 22.09528380373589
  endloop
endfacet
facet normal 1.163214728351739e-15 1.0 -2.6515291781953238e-15
  outer loop
    vertex 43.499999999999964 4.999999999999991 31.5000000000001
    vertex 32.721629400464856 4.999999999999991 22.09528380373589
    vertex 32.491858428704205 4.999999999999946 22.650000000000038
  endloop
endfacet
facet normal 1.163214728351739e-15 1.0 -2.6515291781953238e-15
  outer loop
    vertex 43.499999999999964 4.999999999999991 31.5000000000001
    vertex 32.491858428704205 4.999999999999946 22.650000000000038
    vertex 32.126345596729024 4.999999999999991 23.126345596729177
  endloop
endfacet
facet normal 1.163214728351739e-15 1.0 -2.6515291781953238e-15
  outer loop
    vertex 43.499999999999964 4.999999999999991 31.5000000000001
    vertex 32.126345596729024 4.999999999999991 23.126345596729177
    vertex 31.649999999999977 4.999999999999991 23.491858428704333
  endloop
endfacet
facet normal 1.163214728351739e-15 1.0 -2.6515291781953238e-15
  outer loop
    vertex 43.499999999999964 4.999999999999991 31.5000000000001
    vertex 31.649999999999977 4.999999999999991 23.491858428704333
    vertex 31.095283803735796 4.999999999999968 23.721629400464927
  endloop
endfacet
facet normal 1.163214728351739e-15 1.0 -2.6515291781953238e-15
  outer loop
    vertex 43.499999999999964 4.999999999999991 31.5000000000001
    vertex 31.095283803735796 4.999999999999968 23.721629400464927
    vertex 30.499999999999968 5.000000000000081 23.80000000000002
  endloop
endfacet
facet normal 1.163214728351739e-15 1.0 -2.6515291781953238e-15
  outer loop
    vertex 43.499999999999964 4.999999999999991 31.5000000000001
    vertex 30.499999999999968 5.000000000000081 23.80000000000002
    vertex 12.999999999999998 5.000000000000081 23.800000000000026
  endloop
endfacet
facet normal 1.163214728351739e-15 1.0 -2.6515291781953238e-15
  outer loop
    vertex 43.499999999999964 4.999999999999991 31.5000000000001
    vertex 12.999999999999998 5.000000000000081 23.800000000000026
    vertex -2.255973186038318e-14 5.000000000000013 31.50000000000007
  endloop
endfacet
facet normal 1.163214728351739e-15 1.0 -2.6515291781953238e-15
  outer loop
    vertex 5.49999999999999 4.999999999999946 16.500000000000117
    vertex 9.000000000000005 4.999999999999923 1.5000000000000875
    vertex 5.49999999999999 4.999999999999923 1.5000000000000875
  endloop
endfacet
facet normal 1.163214728351739e-15 1.0 -2.6515291781953238e-15
  outer loop
    vertex 9.000000000000005 4.999999999999923 1.5000000000000875
    vertex 5.49999999999999 4.999999999999946 16.500000000000117
    vertex 11.849999999999989 4.999999999999923 13.508141571295852
  endloop
endfacet
facet normal 1.163214728351739e-15 1.0 -2.6515291781953238e-15
  outer loop
    vertex 9.000000000000005 4.999999999999923 1.5000000000000875
    vertex 11.849999999999989 4.999999999999923 13.508141571295852
    vertex 12.40471619626417 4.999999999999968 13.278370599535146
  endloop
endfacet
facet normal 1.163214728351739e-15 1.0 -2.6515291781953238e-15
  outer loop
    vertex 9.000000000000005 4.999999999999923 1.5000000000000875
    vertex 12.40471619626417 4.999999999999968 13.278370599535146
    vertex 12.999999999999998 4.999999999999991 13.200000000000077
  endloop
endfacet
facet normal 1.163214728351739e-15 1.0 -2.6515291781953238e-15
  outer loop
    vertex 11.849999999999989 4.999999999999923 13.508141571295852
    vertex 5.49999999999999 4.999999999999946 16.500000000000117
    vertex 11.37365440327094 4.999999999999991 13.873654403271003
  endloop
endfacet
facet normal 1.163214728351739e-15 1.0 -2.6515291781953238e-15
  outer loop
    vertex 11.37365440327094 4.999999999999991 13.873654403271003
    vertex 5.49999999999999 4.999999999999946 16.500000000000117
    vertex 11.008141571295761 4.999999999999991 14.35000000000002
  endloop
endfacet
facet normal 1.163214728351739e-15 1.0 -2.6515291781953238e-15
  outer loop
    vertex 11.008141571295761 4.999999999999991 14.35000000000002
    vertex 5.49999999999999 4.999999999999946 16.500000000000117
    vertex 10.778370599535156 5.000000000000013 14.904716196264257
  endloop
endfacet
facet normal 1.163214728351739e-15 1.0 -2.6515291781953238e-15
  outer loop
    vertex 10.778370599535156 5.000000000000013 14.904716196264257
    vertex 5.49999999999999 4.999999999999946 16.500000000000117
    vertex 10.69999999999998 4.999999999999946 15.500000000000068
  endloop
endfacet
facet normal 1.163214728351739e-15 1.0 -2.6515291781953238e-15
  outer loop
    vertex 10.69999999999998 4.999999999999946 15.500000000000068
    vertex 5.49999999999999 4.999999999999946 16.500000000000117
    vertex 10.69999999999998 4.999999999999991 21.500000000000057
  endloop
endfacet
facet normal -0.9659258262890678 6.890197732336999e-16 -0.25881904510252285
  outer loop
    vertex 15.22162940046484 -4.511946372076636e-14 22.095283803735846
    vertex 15.299999999999972 4.999999999999991 21.500000000000075
    vertex 15.299999999999972 -1.127986593019159e-13 21.500000000000124
  endloop
endfacet
facet normal -0.997858923238604 3.684786471722727e-17 -0.06540312923013562
  outer loop
    vertex 15.299999999999972 4.999999999999991 21.500000000000075
    vertex 15.22162940046484 -4.511946372076636e-14 22.095283803735846
    vertex 15.22162940046484 4.999999999999991 22.095283803735903
  endloop
endfacet
facet normal -0.9659258262890714 2.2223821640516374e-15 0.2588190451025091
  outer loop
    vertex 15.22162940046484 5.0000000000000355 14.904716196264268
    vertex 14.991858428704191 -4.511946372076636e-14 14.350000000000081
    vertex 15.22162940046484 -6.767919558114953e-14 14.904716196264324
  endloop
endfacet
facet normal -0.8660254037844464 3.4104229703418384e-15 0.4999999999999869
  outer loop
    vertex 14.991858428704191 -4.511946372076636e-14 14.350000000000081
    vertex 15.22162940046484 5.0000000000000355 14.904716196264268
    vertex 14.991858428704191 4.999999999999991 14.35000000000004
  endloop
endfacet
facet normal -0.8660254037844464 3.4104229703418384e-15 0.4999999999999869
  outer loop
    vertex 14.991858428704191 -4.511946372076636e-14 14.350000000000081
    vertex 14.626345596729058 4.999999999999991 13.873654403271003
    vertex 14.626345596729058 -9.023892744153272e-14 13.873654403271015
  endloop
endfacet
facet normal -0.7071067811865357 4.269089247249882e-15 0.7071067811865593
  outer loop
    vertex 14.626345596729058 4.999999999999991 13.873654403271003
    vertex 14.991858428704191 -4.511946372076636e-14 14.350000000000081
    vertex 14.991858428704191 4.999999999999991 14.35000000000004
  endloop
endfacet
facet normal -0.70710678118653 4.2690892472499475e-15 0.7071067811865648
  outer loop
    vertex 14.626345596729058 -9.023892744153272e-14 13.873654403271015
    vertex 14.149999999999963 4.999999999999923 13.508141571295846
    vertex 14.149999999999963 -9.023892744153272e-14 13.508141571295903
  endloop
endfacet
facet normal -0.5000000000000094 9.016310369390382e-15 0.8660254037844333
  outer loop
    vertex 14.149999999999963 4.999999999999923 13.508141571295846
    vertex 14.626345596729058 -9.023892744153272e-14 13.873654403271015
    vertex 14.626345596729058 4.999999999999991 13.873654403271003
  endloop
endfacet
facet normal -0.5000000000000101 9.016310369390358e-15 0.8660254037844328
  outer loop
    vertex 14.149999999999963 -9.023892744153272e-14 13.508141571295903
    vertex 13.595283803735782 4.999999999999968 13.278370599535146
    vertex 13.595283803735782 -6.767919558114953e-14 13.278370599535226
  endloop
endfacet
facet normal -0.2588190451025134 1.1946540601959753e-14 0.9659258262890702
  outer loop
    vertex 13.595283803735782 4.999999999999968 13.278370599535146
    vertex 14.149999999999963 -9.023892744153272e-14 13.508141571295903
    vertex 14.149999999999963 4.999999999999923 13.508141571295846
  endloop
endfacet
facet normal -0.25881904510251863 1.1946540601959778e-14 0.9659258262890688
  outer loop
    vertex 13.595283803735782 -6.767919558114953e-14 13.278370599535226
    vertex 12.999999999999998 4.999999999999991 13.200000000000077
    vertex 12.999999999999998 -9.023892744153272e-14 13.200000000000111
  endloop
endfacet
facet normal -1.1887420600793114e-14 1.0433695411192974e-14 1.0
  outer loop
    vertex 12.999999999999998 4.999999999999991 13.200000000000077
    vertex 13.595283803735782 -6.767919558114953e-14 13.278370599535226
    vertex 13.595283803735782 4.999999999999968 13.278370599535146
  endloop
endfacet
facet normal -1.3455775942427134e-14 1.0433695411192983e-14 1.0
  outer loop
    vertex 12.999999999999998 -9.023892744153272e-14 13.200000000000111
    vertex 12.40471619626417 4.999999999999968 13.278370599535146
    vertex 12.40471619626417 -4.511946372076636e-14 13.278370599535208
  endloop
endfacet
facet normal 0.2588190451025082 9.785555137678621e-15 0.9659258262890718
  outer loop
    vertex 12.40471619626417 4.999999999999968 13.278370599535146
    vertex 12.999999999999998 -9.023892744153272e-14 13.200000000000111
    vertex 12.999999999999998 4.999999999999991 13.200000000000077
  endloop
endfacet
facet normal 0.25881904510251336 9.785555137678629e-15 0.9659258262890702
  outer loop
    vertex 12.40471619626417 -4.511946372076636e-14 13.278370599535208
    vertex 11.849999999999989 4.999999999999923 13.508141571295852
    vertex 11.849999999999989 -9.023892744153272e-14 13.508141571295898
  endloop
endfacet
facet normal 0.500000000000035 7.247689034471114e-15 0.8660254037844184
  outer loop
    vertex 11.849999999999989 4.999999999999923 13.508141571295852
    vertex 12.40471619626417 -4.511946372076636e-14 13.278370599535208
    vertex 12.40471619626417 4.999999999999968 13.278370599535146
  endloop
endfacet
facet normal 0.5000000000000369 7.247689034471063e-15 0.8660254037844173
  outer loop
    vertex 11.849999999999989 -9.023892744153272e-14 13.508141571295898
    vertex 11.37365440327094 4.999999999999991 13.873654403271003
    vertex 11.37365440327094 -9.023892744153272e-14 13.873654403271015
  endloop
endfacet
facet normal 0.7071067811865246 4.1604248532432854e-15 0.7071067811865703
  outer loop
    vertex 11.37365440327094 4.999999999999991 13.873654403271003
    vertex 11.849999999999989 -9.023892744153272e-14 13.508141571295898
    vertex 11.849999999999989 4.999999999999923 13.508141571295852
  endloop
endfacet
facet normal 0.7071067811865246 4.1604248532432854e-15 0.7071067811865703
  outer loop
    vertex 11.37365440327094 4.999999999999991 13.873654403271003
    vertex 11.008141571295761 -4.511946372076636e-14 14.350000000000069
    vertex 11.37365440327094 -9.023892744153272e-14 13.873654403271015
  endloop
endfacet
facet normal 0.8660254037844469 4.516250264480444e-15 0.49999999999998573
  outer loop
    vertex 11.008141571295761 -4.511946372076636e-14 14.350000000000069
    vertex 11.37365440327094 4.999999999999991 13.873654403271003
    vertex 11.008141571295761 4.999999999999991 14.35000000000002
  endloop
endfacet
facet normal 0.8660254037844485 4.516250264480462e-15 0.4999999999999829
  outer loop
    vertex 11.008141571295761 4.999999999999991 14.35000000000002
    vertex 10.778370599535156 -4.511946372076636e-14 14.90471619626434
    vertex 11.008141571295761 -4.511946372076636e-14 14.350000000000069
  endloop
endfacet
facet normal 0.9659258262890726 3.020416111227358e-15 0.25881904510250475
  outer loop
    vertex 10.778370599535156 -4.511946372076636e-14 14.90471619626434
    vertex 11.008141571295761 4.999999999999991 14.35000000000002
    vertex 10.778370599535156 5.000000000000013 14.904716196264257
  endloop
endfacet
facet normal 0.9659258262890718 3.0204161112274027e-15 0.2588190451025073
  outer loop
    vertex 10.778370599535156 5.000000000000013 14.904716196264257
    vertex 10.69999999999998 0.0 15.500000000000044
    vertex 10.778370599535156 -4.511946372076636e-14 14.90471619626434
  endloop
endfacet
facet normal 0.9978589232386014 4.05725320055209e-16 0.06540312923017633
  outer loop
    vertex 10.69999999999998 0.0 15.500000000000044
    vertex 10.778370599535156 5.000000000000013 14.904716196264257
    vertex 10.69999999999998 4.999999999999946 15.500000000000068
  endloop
endfacet
facet normal 0.9978589232386014 4.05725320055209e-16 0.06540312923017633
  outer loop
    vertex 10.69999999999998 0.0 15.500000000000044
    vertex 10.69999999999998 4.999999999999991 21.500000000000057
    vertex 10.69999999999998 -9.023892744153272e-14 21.500000000000114
  endloop
endfacet
facet normal 0.9978589232386016 7.583577167037526e-20 -0.06540312923017244
  outer loop
    vertex 10.69999999999998 4.999999999999991 21.500000000000057
    vertex 10.69999999999998 0.0 15.500000000000044
    vertex 10.69999999999998 4.999999999999946 15.500000000000068
  endloop
endfacet
facet normal 0.9978589232386016 7.583577167037526e-20 -0.06540312923017244
  outer loop
    vertex 10.69999999999998 4.999999999999991 21.500000000000057
    vertex 10.778370599535156 0.0 22.095283803735835
    vertex 10.69999999999998 -9.023892744153272e-14 21.500000000000114
  endloop
endfacet
facet normal 0.9659258262890679 5.443655338438246e-16 -0.2588190451025222
  outer loop
    vertex 10.778370599535156 0.0 22.095283803735835
    vertex 10.69999999999998 4.999999999999991 21.500000000000057
    vertex 10.778370599535156 4.999999999999991 22.09528380373589
  endloop
endfacet
facet normal 0.9659258262890679 5.443655338438246e-16 -0.2588190451025222
  outer loop
    vertex 10.778370599535156 0.0 22.095283803735835
    vertex 11.008141571295761 4.999999999999968 22.65000000000002
    vertex 11.008141571295761 -4.511946372076636e-14 22.65000000000005
  endloop
endfacet
facet normal 0.8660254037844458 1.4094769309339436e-15 -0.4999999999999873
  outer loop
    vertex 11.008141571295761 4.999999999999968 22.65000000000002
    vertex 10.778370599535156 0.0 22.095283803735835
    vertex 10.778370599535156 4.999999999999991 22.09528380373589
  endloop
endfacet
facet normal 0.8660254037844458 1.4094769309339436e-15 -0.4999999999999873
  outer loop
    vertex 11.008141571295761 4.999999999999968 22.65000000000002
    vertex 11.37365440327094 -4.511946372076636e-14 23.126345596729088
    vertex 11.008141571295761 -4.511946372076636e-14 22.65000000000005
  endloop
endfacet
facet normal 0.707106781186546 8.084893589649791e-15 -0.707106781186549
  outer loop
    vertex 11.37365440327094 -4.511946372076636e-14 23.126345596729088
    vertex 11.008141571295761 4.999999999999968 22.65000000000002
    vertex 11.37365440327094 5.000000000000013 23.126345596729145
  endloop
endfacet
facet normal 0.5000000000000158 1.2474288075503758e-14 -0.8660254037844295
  outer loop
    vertex 11.849999999999989 4.999999999999991 23.49185842870433
    vertex 11.37365440327094 -4.511946372076636e-14 23.126345596729088
    vertex 11.37365440327094 5.000000000000013 23.126345596729145
  endloop
endfacet
facet normal 0.707106781186546 8.084893589649791e-15 -0.707106781186549
  outer loop
    vertex 11.37365440327094 -4.511946372076636e-14 23.126345596729088
    vertex 11.849999999999989 4.999999999999991 23.49185842870433
    vertex 11.849999999999989 -4.511946372076636e-14 23.491858428704205
  endloop
endfacet
facet normal 0.2588190451024936 4.4084419746316484e-15 -0.9659258262890756
  outer loop
    vertex 12.40471619626417 4.999999999999991 23.721629400464916
    vertex 11.849999999999989 -4.511946372076636e-14 23.491858428704205
    vertex 11.849999999999989 4.999999999999991 23.49185842870433
  endloop
endfacet
facet normal 0.5000000000000134 1.2474288075503719e-14 -0.8660254037844308
  outer loop
    vertex 11.849999999999989 -4.511946372076636e-14 23.491858428704205
    vertex 12.40471619626417 4.999999999999991 23.721629400464916
    vertex 12.40471619626417 -9.023892744153272e-14 23.721629400464927
  endloop
endfacet
facet normal -4.918932662397521e-15 -1.692280469392719e-15 -0.9999999999999999
  outer loop
    vertex 12.999999999999998 5.000000000000081 23.800000000000026
    vertex 12.40471619626417 -9.023892744153272e-14 23.721629400464927
    vertex 12.40471619626417 4.999999999999991 23.721629400464916
  endloop
endfacet
facet normal 0.2588190451024996 4.4084419746319356e-15 -0.9659258262890741
  outer loop
    vertex 12.40471619626417 -9.023892744153272e-14 23.721629400464927
    vertex 12.999999999999998 5.000000000000081 23.800000000000026
    vertex 12.999999999999998 -4.511946372076636e-14 23.80000000000003
  endloop
endfacet
facet normal -0.25881904510247944 3.6211133558274484e-15 -0.9659258262890793
  outer loop
    vertex 13.595283803735782 4.999999999999991 23.721629400464916
    vertex 12.999999999999998 -4.511946372076636e-14 23.80000000000003
    vertex 12.999999999999998 5.000000000000081 23.800000000000026
  endloop
endfacet
facet normal -4.918932662396816e-15 -1.6922804693927186e-15 -1.0
  outer loop
    vertex 12.999999999999998 -4.511946372076636e-14 23.80000000000003
    vertex 13.595283803735782 4.999999999999991 23.721629400464916
    vertex 13.595283803735782 -9.023892744153272e-14 23.721629400464927
  endloop
endfacet
facet normal -0.499999999999965 9.433052018620148e-15 -0.8660254037844588
  outer loop
    vertex 14.149999999999963 4.999999999999991 23.491858428704344
    vertex 13.595283803735782 -9.023892744153272e-14 23.721629400464927
    vertex 13.595283803735782 4.999999999999991 23.721629400464916
  endloop
endfacet
facet normal -0.25881904510248693 3.621113355827764e-15 -0.9659258262890773
  outer loop
    vertex 13.595283803735782 -9.023892744153272e-14 23.721629400464927
    vertex 14.149999999999963 4.999999999999991 23.491858428704344
    vertex 14.149999999999963 -6.767919558114953e-14 23.491858428704237
  endloop
endfacet
facet normal -0.7071067811865568 4.793047937913207e-15 -0.7071067811865381
  outer loop
    vertex 14.626345596729058 4.999999999999991 23.126345596729173
    vertex 14.149999999999963 -6.767919558114953e-14 23.491858428704237
    vertex 14.149999999999963 4.999999999999991 23.491858428704344
  endloop
endfacet
facet normal -0.49999999999996647 9.433052018620156e-15 -0.8660254037844579
  outer loop
    vertex 14.149999999999963 -6.767919558114953e-14 23.491858428704237
    vertex 14.626345596729058 4.999999999999991 23.126345596729173
    vertex 14.626345596729058 -9.023892744153272e-14 23.126345596729156
  endloop
endfacet
facet normal -0.7071067811865568 4.793047937913207e-15 -0.7071067811865381
  outer loop
    vertex 14.626345596729058 4.999999999999991 23.126345596729173
    vertex 14.991858428704191 -4.511946372076636e-14 22.650000000000045
    vertex 14.626345596729058 -9.023892744153272e-14 23.126345596729156
  endloop
endfacet
facet normal -0.866025403784453 4.791830344423211e-16 -0.49999999999997524
  outer loop
    vertex 14.991858428704191 -4.511946372076636e-14 22.650000000000045
    vertex 14.626345596729058 4.999999999999991 23.126345596729173
    vertex 14.991858428704191 4.999999999999968 22.65000000000002
  endloop
endfacet
facet normal -0.8660254037844548 4.791830344423448e-16 -0.49999999999997197
  outer loop
    vertex 14.991858428704191 4.999999999999968 22.65000000000002
    vertex 15.22162940046484 -4.511946372076636e-14 22.095283803735846
    vertex 14.991858428704191 -4.511946372076636e-14 22.650000000000045
  endloop
endfacet
facet normal -0.9659258262890678 6.890197732336999e-16 -0.25881904510252285
  outer loop
    vertex 15.22162940046484 -4.511946372076636e-14 22.095283803735846
    vertex 14.991858428704191 4.999999999999968 22.65000000000002
    vertex 15.22162940046484 4.999999999999991 22.095283803735903
  endloop
endfacet
facet normal 0.7071067811865516 4.040028120902047e-15 0.7071067811865435
  outer loop
    vertex 28.87365440327093 4.999999999999991 13.873654403271003
    vertex 28.5081415712958 -2.255973186038318e-14 14.350000000000081
    vertex 28.87365440327093 -6.767919558114953e-14 13.873654403271015
  endloop
endfacet
facet normal 0.8660254037844455 3.625049517445571e-15 0.49999999999998795
  outer loop
    vertex 28.5081415712958 -2.255973186038318e-14 14.350000000000081
    vertex 28.87365440327093 4.999999999999991 13.873654403271003
    vertex 28.5081415712958 4.999999999999991 14.35000000000004
  endloop
endfacet
facet normal 0.8660254037844488 3.6250495174455975e-15 0.4999999999999821
  outer loop
    vertex 28.5081415712958 4.999999999999991 14.35000000000004
    vertex 28.278370599535148 0.0 14.904716196264335
    vertex 28.5081415712958 -2.255973186038318e-14 14.350000000000081
  endloop
endfacet
facet normal 0.965925826289073 2.438065363178331e-15 0.25881904510250325
  outer loop
    vertex 28.278370599535148 0.0 14.904716196264335
    vertex 28.5081415712958 4.999999999999991 14.35000000000004
    vertex 28.278370599535148 5.0000000000000355 14.904716196264268
  endloop
endfacet
facet normal 0.9659258262890722 2.43806536317838e-15 0.25881904510250686
  outer loop
    vertex 28.278370599535148 5.0000000000000355 14.904716196264268
    vertex 28.200000000000017 0.0 15.500000000000073
    vertex 28.278370599535148 0.0 14.904716196264335
  endloop
endfacet
facet normal 0.997858923238604 3.6864371513809427e-16 0.06540312923013558
  outer loop
    vertex 28.200000000000017 0.0 15.500000000000073
    vertex 28.278370599535148 5.0000000000000355 14.904716196264268
    vertex 28.200000000000017 4.999999999999946 15.500000000000085
  endloop
endfacet
facet normal 0.997858923238604 3.6864371513809427e-16 0.06540312923013558
  outer loop
    vertex 28.200000000000017 0.0 15.500000000000073
    vertex 28.200000000000017 4.999999999999968 21.500000000000075
    vertex 28.200000000000017 -2.255973186038318e-14 21.500000000000114
  endloop
endfacet
facet normal 0.9978589232386039 1.479347750397949e-16 -0.06540312923013611
  outer loop
    vertex 28.200000000000017 4.999999999999968 21.500000000000075
    vertex 28.200000000000017 0.0 15.500000000000073
    vertex 28.200000000000017 4.999999999999946 15.500000000000085
  endloop
endfacet
facet normal 0.9978589232386039 1.479347750397949e-16 -0.06540312923013611
  outer loop
    vertex 28.200000000000017 4.999999999999968 21.500000000000075
    vertex 28.278370599535148 4.511946372076636e-14 22.09528380373584
    vertex 28.200000000000017 -2.255973186038318e-14 21.500000000000114
  endloop
endfacet
facet normal 0.9659258262890679 1.2371182786322627e-15 -0.25881904510252207
  outer loop
    vertex 28.278370599535148 4.511946372076636e-14 22.09528380373584
    vertex 28.200000000000017 4.999999999999968 21.500000000000075
    vertex 28.278370599535148 4.999999999999991 22.095283803735903
  endloop
endfacet
facet normal 0.9659258262890679 1.2371182786322627e-15 -0.25881904510252207
  outer loop
    vertex 28.278370599535148 4.511946372076636e-14 22.09528380373584
    vertex 28.5081415712958 4.999999999999946 22.650000000000038
    vertex 28.5081415712958 0.0 22.650000000000045
  endloop
endfacet
facet normal 0.86602540378445 1.7807579197667565e-15 -0.49999999999998024
  outer loop
    vertex 28.5081415712958 4.999999999999946 22.650000000000038
    vertex 28.278370599535148 4.511946372076636e-14 22.09528380373584
    vertex 28.278370599535148 4.999999999999991 22.095283803735903
  endloop
endfacet
facet normal 0.86602540378445 1.7807579197667565e-15 -0.49999999999998024
  outer loop
    vertex 28.5081415712958 4.999999999999946 22.650000000000038
    vertex 28.87365440327093 0.0 23.12634559672913
    vertex 28.5081415712958 0.0 22.650000000000045
  endloop
endfacet
facet normal 0.7071067811865531 5.883434142794297e-15 -0.707106781186542
  outer loop
    vertex 28.87365440327093 0.0 23.12634559672913
    vertex 28.5081415712958 4.999999999999946 22.650000000000038
    vertex 28.87365440327093 4.999999999999991 23.12634559672916
  endloop
endfacet
facet normal 0.49999999999999 9.65917208233104e-15 -0.8660254037844445
  outer loop
    vertex 29.350000000000026 4.999999999999991 23.491858428704333
    vertex 28.87365440327093 0.0 23.12634559672913
    vertex 28.87365440327093 4.999999999999991 23.12634559672916
  endloop
endfacet
facet normal 0.7071067811865531 5.883434142794297e-15 -0.707106781186542
  outer loop
    vertex 28.87365440327093 0.0 23.12634559672913
    vertex 29.350000000000026 4.999999999999991 23.491858428704333
    vertex 29.350000000000026 0.0 23.491858428704234
  endloop
endfacet
facet normal 0.25881904510248926 3.0583451693910224e-15 -0.9659258262890766
  outer loop
    vertex 29.904716196264207 4.999999999999968 23.721629400464938
    vertex 29.350000000000026 0.0 23.491858428704234
    vertex 29.350000000000026 4.999999999999991 23.491858428704333
  endloop
endfacet
facet normal 0.4999999999999888 9.659172082331034e-15 -0.8660254037844453
  outer loop
    vertex 29.350000000000026 0.0 23.491858428704234
    vertex 29.904716196264207 4.999999999999968 23.721629400464938
    vertex 29.904716196264207 -2.255973186038318e-14 23.721629400464945
  endloop
endfacet
facet normal 2.7178885181726e-15 -3.3836324757593158e-15 -1.0
  outer loop
    vertex 30.499999999999968 5.000000000000081 23.80000000000002
    vertex 29.904716196264207 -2.255973186038318e-14 23.721629400464945
    vertex 29.904716196264207 4.999999999999968 23.721629400464938
  endloop
endfacet
facet normal 0.2588190451024953 3.058345169391302e-15 -0.965925826289075
  outer loop
    vertex 29.904716196264207 -2.255973186038318e-14 23.721629400464945
    vertex 30.499999999999968 5.000000000000081 23.80000000000002
    vertex 30.499999999999968 0.0 23.80000000000004
  endloop
endfacet
facet normal -0.25881904510248677 2.4945611672687977e-15 -0.9659258262890774
  outer loop
    vertex 31.095283803735796 4.999999999999968 23.721629400464927
    vertex 30.499999999999968 0.0 23.80000000000004
    vertex 30.499999999999968 5.000000000000081 23.80000000000002
  endloop
endfacet
facet normal 2.7178885181722116e-15 -3.3836324757593146e-15 -0.9999999999999999
  outer loop
    vertex 30.499999999999968 0.0 23.80000000000004
    vertex 31.095283803735796 4.999999999999968 23.721629400464927
    vertex 31.095283803735796 -2.255973186038318e-14 23.721629400464945
  endloop
endfacet
facet normal -0.5000000000000032 1.1012590528617421e-14 -0.8660254037844368
  outer loop
    vertex 31.649999999999977 4.999999999999991 23.491858428704333
    vertex 31.095283803735796 -2.255973186038318e-14 23.721629400464945
    vertex 31.095283803735796 4.999999999999968 23.721629400464927
  endloop
endfacet
facet normal -0.2588190451024927 2.494561167269099e-15 -0.965925826289076
  outer loop
    vertex 31.095283803735796 -2.255973186038318e-14 23.721629400464945
    vertex 31.649999999999977 4.999999999999991 23.491858428704333
    vertex 31.649999999999977 0.0 23.49185842870422
  endloop
endfacet
facet normal -0.7071067811865422 7.930409275181274e-15 -0.7071067811865529
  outer loop
    vertex 32.126345596729024 4.999999999999991 23.126345596729177
    vertex 31.649999999999977 0.0 23.49185842870422
    vertex 31.649999999999977 4.999999999999991 23.491858428704333
  endloop
endfacet
facet normal -0.5000000000000021 1.1012590528617399e-14 -0.8660254037844373
  outer loop
    vertex 31.649999999999977 0.0 23.49185842870422
    vertex 32.126345596729024 4.999999999999991 23.126345596729177
    vertex 32.126345596729024 0.0 23.126345596729127
  endloop
endfacet
facet normal -0.7071067811865464 7.930409275181044e-15 -0.7071067811865489
  outer loop
    vertex 32.126345596729024 0.0 23.126345596729127
    vertex 32.491858428704205 4.999999999999946 22.650000000000038
    vertex 32.491858428704205 -2.255973186038318e-14 22.650000000000045
  endloop
endfacet
facet normal -0.8660254037844375 2.2571017522297524e-15 -0.500000000000002
  outer loop
    vertex 32.491858428704205 4.999999999999946 22.650000000000038
    vertex 32.126345596729024 0.0 23.126345596729127
    vertex 32.126345596729024 4.999999999999991 23.126345596729177
  endloop
endfacet
facet normal -0.8660254037844375 2.2571017522297524e-15 -0.500000000000002
  outer loop
    vertex 32.491858428704205 4.999999999999946 22.650000000000038
    vertex 32.721629400464856 4.511946372076636e-14 22.09528380373584
    vertex 32.491858428704205 -2.255973186038318e-14 22.650000000000045
  endloop
endfacet
facet normal -0.965925826289067 7.964882236988464e-16 -0.25881904510252524
  outer loop
    vertex 32.721629400464856 4.511946372076636e-14 22.09528380373584
    vertex 32.491858428704205 4.999999999999946 22.650000000000038
    vertex 32.721629400464856 4.999999999999991 22.09528380373589
  endloop
endfacet
facet normal -0.965925826289067 7.964882236988464e-16 -0.25881904510252524
  outer loop
    vertex 32.721629400464856 4.511946372076636e-14 22.09528380373584
    vertex 32.79999999999998 4.999999999999968 21.500000000000075
    vertex 32.79999999999998 0.0 21.500000000000135
  endloop
endfacet
facet normal -0.9978589232386038 -7.404633973389562e-17 -0.06540312923013779
  outer loop
    vertex 32.79999999999998 4.999999999999968 21.500000000000075
    vertex 32.721629400464856 4.511946372076636e-14 22.09528380373584
    vertex 32.721629400464856 4.999999999999991 22.09528380373589
  endloop
endfacet
facet normal -0.997858923238604 -7.404633973389398e-17 -0.0654031292301363
  outer loop
    vertex 32.79999999999998 0.0 21.500000000000135
    vertex 32.79999999999998 4.999999999999946 15.500000000000085
    vertex 32.79999999999998 -2.255973186038318e-14 15.500000000000078
  endloop
endfacet
facet normal -0.9978589232386039 4.0539725046733475e-16 0.0654031292301367
  outer loop
    vertex 32.79999999999998 4.999999999999946 15.500000000000085
    vertex 32.79999999999998 0.0 21.500000000000135
    vertex 32.79999999999998 4.999999999999968 21.500000000000075
  endloop
endfacet
facet normal -0.9978589232386039 4.0539725046733475e-16 0.0654031292301367
  outer loop
    vertex 32.79999999999998 4.999999999999946 15.500000000000085
    vertex 32.721629400464856 0.0 14.904716196264335
    vertex 32.79999999999998 -2.255973186038318e-14 15.500000000000078
  endloop
endfacet
facet normal -0.965925826289074 2.6928571938801373e-15 0.2588190451024997
  outer loop
    vertex 32.721629400464856 0.0 14.904716196264335
    vertex 32.79999999999998 4.999999999999946 15.500000000000085
    vertex 32.721629400464856 4.999999999999991 14.904716196264268
  endloop
endfacet
facet normal -0.965925826289074 2.6928571938801373e-15 0.2588190451024997
  outer loop
    vertex 32.721629400464856 0.0 14.904716196264335
    vertex 32.491858428704205 4.999999999999991 14.35000000000003
    vertex 32.491858428704205 -2.255973186038318e-14 14.350000000000081
  endloop
endfacet
facet normal -0.8660254037844333 3.843709025534778e-15 0.500000000000009
  outer loop
    vertex 32.491858428704205 4.999999999999991 14.35000000000003
    vertex 32.721629400464856 0.0 14.904716196264335
    vertex 32.721629400464856 4.999999999999991 14.904716196264268
  endloop
endfacet
facet normal -0.8660254037844317 3.8437090255347606e-15 0.500000000000012
  outer loop
    vertex 32.491858428704205 -2.255973186038318e-14 14.350000000000081
    vertex 32.126345596729024 4.999999999999991 13.873654403271003
    vertex 32.126345596729024 -6.767919558114953e-14 13.873654403271003
  endloop
endfacet
facet normal -0.7071067811865281 3.589747625158923e-15 0.707106781186567
  outer loop
    vertex 32.126345596729024 4.999999999999991 13.873654403271003
    vertex 32.491858428704205 -2.255973186038318e-14 14.350000000000081
    vertex 32.491858428704205 4.999999999999991 14.35000000000003
  endloop
endfacet
facet normal -0.7071067811865235 3.589747625158945e-15 0.7071067811865714
  outer loop
    vertex 32.126345596729024 -6.767919558114953e-14 13.873654403271003
    vertex 31.649999999999977 4.9999999999999005 13.508141571295852
    vertex 31.649999999999977 -2.255973186038318e-14 13.508141571295903
  endloop
endfacet
facet normal -0.5000000000000313 5.972754360390711e-15 0.8660254037844206
  outer loop
    vertex 31.649999999999977 4.9999999999999005 13.508141571295852
    vertex 32.126345596729024 -6.767919558114953e-14 13.873654403271003
    vertex 32.126345596729024 4.999999999999991 13.873654403271003
  endloop
endfacet
facet normal -0.5000000000000321 5.972754360390699e-15 0.8660254037844202
  outer loop
    vertex 31.649999999999977 -2.255973186038318e-14 13.508141571295903
    vertex 31.095283803735796 4.999999999999946 13.278370599535164
    vertex 31.095283803735796 -2.255973186038318e-14 13.278370599535197
  endloop
endfacet
facet normal -0.25881904510250836 6.479955733153211e-15 0.9659258262890715
  outer loop
    vertex 31.095283803735796 4.999999999999946 13.278370599535164
    vertex 31.649999999999977 -2.255973186038318e-14 13.508141571295903
    vertex 31.649999999999977 4.9999999999999005 13.508141571295852
  endloop
endfacet
facet normal -0.2588190451025117 6.479955733153249e-15 0.9659258262890708
  outer loop
    vertex 31.095283803735796 -2.255973186038318e-14 13.278370599535197
    vertex 30.499999999999968 4.999999999999968 13.200000000000088
    vertex 30.499999999999968 -4.511946372076636e-14 13.200000000000106
  endloop
endfacet
facet normal 7.369487883700073e-15 5.076154470720647e-15 1.0
  outer loop
    vertex 30.499999999999968 4.999999999999968 13.200000000000088
    vertex 31.095283803735796 -2.255973186038318e-14 13.278370599535197
    vertex 31.095283803735796 4.999999999999946 13.278370599535164
  endloop
endfacet
facet normal 7.378398993595715e-15 5.0761544707206476e-15 1.0
  outer loop
    vertex 30.499999999999968 -4.511946372076636e-14 13.200000000000106
    vertex 29.904716196264207 4.999999999999946 13.278370599535164
    vertex 29.904716196264207 -2.255973186038318e-14 13.278370599535197
  endloop
endfacet
facet normal 0.2588190451025016 6.478875770363328e-15 0.9659258262890734
  outer loop
    vertex 29.904716196264207 4.999999999999946 13.278370599535164
    vertex 30.499999999999968 -4.511946372076636e-14 13.200000000000106
    vertex 30.499999999999968 4.999999999999968 13.200000000000088
  endloop
endfacet
facet normal 0.2588190451025049 6.478875770363363e-15 0.9659258262890724
  outer loop
    vertex 29.904716196264207 -2.255973186038318e-14 13.278370599535197
    vertex 29.34999999999998 4.9999999999999005 13.508141571295852
    vertex 29.34999999999998 -2.255973186038318e-14 13.508141571295903
  endloop
endfacet
facet normal 0.5000000000000222 6.422813879696355e-15 0.8660254037844258
  outer loop
    vertex 29.34999999999998 4.9999999999999005 13.508141571295852
    vertex 29.904716196264207 -2.255973186038318e-14 13.278370599535197
    vertex 29.904716196264207 4.999999999999946 13.278370599535164
  endloop
endfacet
facet normal 0.5000000000000229 6.4228138796963446e-15 0.8660254037844254
  outer loop
    vertex 29.34999999999998 -2.255973186038318e-14 13.508141571295903
    vertex 28.87365440327093 4.999999999999991 13.873654403271003
    vertex 28.87365440327093 -6.767919558114953e-14 13.873654403271015
  endloop
endfacet
facet normal 0.7071067811865516 4.040028120902047e-15 0.7071067811865435
  outer loop
    vertex 28.87365440327093 4.999999999999991 13.873654403271003
    vertex 29.34999999999998 -2.255973186038318e-14 13.508141571295903
    vertex 29.34999999999998 4.9999999999999005 13.508141571295852
  endloop
endfacet
facet normal -0.0 0.7071067811865485 0.7071067811865465
  outer loop
    vertex 3.499999999999994 4.999999999999946 16.500000000000117
    vertex 5.49999999999999 20.000000000000007 1.5000000000000084
    vertex 3.499999999999994 20.000000000000007 1.5000000000000084
  endloop
endfacet
facet normal -0.0 0.7071067811865485 0.7071067811865465
  outer loop
    vertex 5.49999999999999 20.000000000000007 1.5000000000000084
    vertex 3.499999999999994 4.999999999999946 16.500000000000117
    vertex 5.49999999999999 4.999999999999946 16.500000000000117
  endloop
endfacet
facet normal -1.0 0.0 0.0
  outer loop
    vertex 37.99999999999998 19.99999999999992 1.5000000000000537
    vertex 37.99999999999998 4.999999999999878 1.5000000000000762
    vertex 37.99999999999998 4.9999999999999005 16.500000000000107
  endloop
endfacet
facet normal -0.0 0.7071067811865483 0.7071067811865468
  outer loop
    vertex 37.99999999999998 4.9999999999999005 16.500000000000107
    vertex 39.99999999999997 19.99999999999992 1.5000000000000537
    vertex 37.99999999999998 19.99999999999992 1.5000000000000537
  endloop
endfacet
facet normal -0.0 0.7071067811865483 0.7071067811865468
  outer loop
    vertex 39.99999999999997 19.99999999999992 1.5000000000000537
    vertex 37.99999999999998 4.9999999999999005 16.500000000000107
    vertex 39.99999999999997 4.9999999999999005 16.500000000000107
  endloop
endfacet
facet normal -3.2413407845378377e-16 -8.459899447643684e-15 1.0
  outer loop
    vertex 0.0 0.0 31.500000000000043
    vertex 43.499999999999964 4.999999999999991 31.5000000000001
    vertex -2.255973186038318e-14 5.000000000000013 31.50000000000007
  endloop
endfacet
facet normal -3.2413407845378377e-16 -8.459899447643684e-15 1.0
  outer loop
    vertex 43.499999999999964 4.999999999999991 31.5000000000001
    vertex 0.0 0.0 31.500000000000043
    vertex 43.499999999999964 0.0 31.500000000000043
  endloop
endfacet
facet normal -0.9978589232386038 3.693007849664228e-16 0.06540312923013743
  outer loop
    vertex 15.299999999999972 -2.255973186038318e-14 15.500000000000068
    vertex 15.22162940046484 5.0000000000000355 14.904716196264268
    vertex 15.22162940046484 -6.767919558114953e-14 14.904716196264324
  endloop
endfacet
facet normal -0.9659258262890714 2.2223821640516374e-15 0.2588190451025091
  outer loop
    vertex 15.22162940046484 5.0000000000000355 14.904716196264268
    vertex 15.299999999999972 -2.255973186038318e-14 15.500000000000068
    vertex 15.299999999999972 4.999999999999946 15.500000000000068
  endloop
endfacet
facet normal -0.997858923238604 3.684786471722727e-17 -0.06540312923013562
  outer loop
    vertex 15.299999999999972 4.999999999999991 21.500000000000075
    vertex 15.299999999999972 -2.255973186038318e-14 15.500000000000068
    vertex 15.299999999999972 -1.127986593019159e-13 21.500000000000124
  endloop
endfacet
facet normal -0.9978589232386038 3.693007849664228e-16 0.06540312923013743
  outer loop
    vertex 15.299999999999972 -2.255973186038318e-14 15.500000000000068
    vertex 15.299999999999972 4.999999999999991 21.500000000000075
    vertex 15.299999999999972 4.999999999999946 15.500000000000068
  endloop
endfacet
facet normal 7.779217882890768e-16 1.972004533250277e-15 -1.0
  outer loop
    vertex 0.0 28.600000000000062 1.127986593019159e-13
    vertex 9.000000000000005 18.599999999999966 3.3839597790574766e-14
    vertex 0.0 0.0 0.0
  endloop
endfacet
facet normal 7.779217882890768e-16 1.972004533250277e-15 -1.0
  outer loop
    vertex 9.000000000000005 18.599999999999966 3.3839597790574766e-14
    vertex 0.0 28.600000000000062 1.127986593019159e-13
    vertex 43.499999999999964 28.600000000000016 9.023892744153272e-14
  endloop
endfacet
facet normal 7.779217882890768e-16 1.972004533250277e-15 -1.0
  outer loop
    vertex 9.000000000000005 18.599999999999966 3.3839597790574766e-14
    vertex 43.499999999999964 28.600000000000016 9.023892744153272e-14
    vertex 34.49999999999996 18.59999999999992 5.639932965095795e-14
  endloop
endfacet
facet normal 7.779217882890768e-16 1.972004533250277e-15 -1.0
  outer loop
    vertex 34.49999999999996 18.59999999999992 5.639932965095795e-14
    vertex 43.499999999999964 28.600000000000016 9.023892744153272e-14
    vertex 34.49999999999996 4.9999999999999005 1.0151879337172431e-13
  endloop
endfacet
facet normal 7.779217882890768e-16 1.972004533250277e-15 -1.0
  outer loop
    vertex 0.0 0.0 0.0
    vertex 9.000000000000005 4.999999999999946 7.895906151134113e-14
    vertex 43.499999999999964 0.0 9.023892744153272e-14
  endloop
endfacet
facet normal 7.779217882890768e-16 1.972004533250277e-15 -1.0
  outer loop
    vertex 9.000000000000005 4.999999999999946 7.895906151134113e-14
    vertex 0.0 0.0 0.0
    vertex 9.000000000000005 18.599999999999966 3.3839597790574766e-14
  endloop
endfacet
facet normal 7.779217882890768e-16 1.972004533250277e-15 -1.0
  outer loop
    vertex 43.499999999999964 0.0 9.023892744153272e-14
    vertex 9.000000000000005 4.999999999999946 7.895906151134113e-14
    vertex 34.49999999999996 4.9999999999999005 1.0151879337172431e-13
  endloop
endfacet
facet normal 7.779217882890768e-16 1.972004533250277e-15 -1.0
  outer loop
    vertex 43.499999999999964 0.0 9.023892744153272e-14
    vertex 34.49999999999996 4.9999999999999005 1.0151879337172431e-13
    vertex 43.499999999999964 28.600000000000016 9.023892744153272e-14
  endloop
endfacet
facet normal -1.0 0.0 0.0
  outer loop
    vertex 3.499999999999994 20.000000000000007 1.5000000000000084
    vertex 3.499999999999994 4.999999999999923 1.5000000000000875
    vertex 3.499999999999994 4.999999999999946 16.500000000000117
  endloop
endfacet
facet normal 0.0 -1.0 0.0
  outer loop
    vertex 29.904716196264207 -2.255973186038318e-14 13.278370599535197
    vertex 12.999999999999998 -9.023892744153272e-14 13.200000000000111
    vertex 30.499999999999968 -4.511946372076636e-14 13.200000000000106
  endloop
endfacet
facet normal 0.0 -1.0 0.0
  outer loop
    vertex 12.999999999999998 -9.023892744153272e-14 13.200000000000111
    vertex 29.904716196264207 -2.255973186038318e-14 13.278370599535197
    vertex 13.595283803735782 -6.767919558114953e-14 13.278370599535226
  endloop
endfacet
facet normal 0.0 -1.0 0.0
  outer loop
    vertex 13.595283803735782 -6.767919558114953e-14 13.278370599535226
    vertex 29.904716196264207 -2.255973186038318e-14 13.278370599535197
    vertex 29.34999999999998 -2.255973186038318e-14 13.508141571295903
  endloop
endfacet
facet normal 0.0 -1.0 0.0
  outer loop
    vertex 13.595283803735782 -6.767919558114953e-14 13.278370599535226
    vertex 29.34999999999998 -2.255973186038318e-14 13.508141571295903
    vertex 14.149999999999963 -9.023892744153272e-14 13.508141571295903
  endloop
endfacet
facet normal 0.0 -1.0 0.0
  outer loop
    vertex 14.149999999999963 -9.023892744153272e-14 13.508141571295903
    vertex 29.34999999999998 -2.255973186038318e-14 13.508141571295903
    vertex 28.87365440327093 -6.767919558114953e-14 13.873654403271015
  endloop
endfacet
facet normal 0.0 -1.0 0.0
  outer loop
    vertex 14.149999999999963 -9.023892744153272e-14 13.508141571295903
    vertex 28.87365440327093 -6.767919558114953e-14 13.873654403271015
    vertex 14.626345596729058 -9.023892744153272e-14 13.873654403271015
  endloop
endfacet
facet normal 0.0 -1.0 0.0
  outer loop
    vertex 14.626345596729058 -9.023892744153272e-14 13.873654403271015
    vertex 28.87365440327093 -6.767919558114953e-14 13.873654403271015
    vertex 28.5081415712958 -2.255973186038318e-14 14.350000000000081
  endloop
endfacet
facet normal 0.0 -1.0 0.0
  outer loop
    vertex 14.626345596729058 -9.023892744153272e-14 13.873654403271015
    vertex 28.5081415712958 -2.255973186038318e-14 14.350000000000081
    vertex 14.991858428704191 -4.511946372076636e-14 14.350000000000081
  endloop
endfacet
facet normal 0.0 -1.0 0.0
  outer loop
    vertex 14.991858428704191 -4.511946372076636e-14 14.350000000000081
    vertex 28.5081415712958 -2.255973186038318e-14 14.350000000000081
    vertex 28.278370599535148 0.0 14.904716196264335
  endloop
endfacet
facet normal 0.0 -1.0 0.0
  outer loop
    vertex 14.991858428704191 -4.511946372076636e-14 14.350000000000081
    vertex 28.278370599535148 0.0 14.904716196264335
    vertex 15.22162940046484 -6.767919558114953e-14 14.904716196264324
  endloop
endfacet
facet normal 0.0 -1.0 0.0
  outer loop
    vertex 15.22162940046484 -6.767919558114953e-14 14.904716196264324
    vertex 28.278370599535148 0.0 14.904716196264335
    vertex 15.299999999999972 -2.255973186038318e-14 15.500000000000068
  endloop
endfacet
facet normal 0.0 -1.0 0.0
  outer loop
    vertex 15.299999999999972 -2.255973186038318e-14 15.500000000000068
    vertex 28.278370599535148 0.0 14.904716196264335
    vertex 28.200000000000017 0.0 15.500000000000073
  endloop
endfacet
facet normal 0.0 -1.0 0.0
  outer loop
    vertex 15.299999999999972 -2.255973186038318e-14 15.500000000000068
    vertex 28.200000000000017 0.0 15.500000000000073
    vertex 15.299999999999972 -1.127986593019159e-13 21.500000000000124
  endloop
endfacet
facet normal 0.0 -1.0 0.0
  outer loop
    vertex 15.299999999999972 -1.127986593019159e-13 21.500000000000124
    vertex 28.200000000000017 0.0 15.500000000000073
    vertex 28.200000000000017 -2.255973186038318e-14 21.500000000000114
  endloop
endfacet
facet normal 0.0 -1.0 0.0
  outer loop
    vertex 15.299999999999972 -1.127986593019159e-13 21.500000000000124
    vertex 28.200000000000017 -2.255973186038318e-14 21.500000000000114
    vertex 28.278370599535148 4.511946372076636e-14 22.09528380373584
  endloop
endfacet
facet normal 0.0 -1.0 0.0
  outer loop
    vertex 15.299999999999972 -1.127986593019159e-13 21.500000000000124
    vertex 28.278370599535148 4.511946372076636e-14 22.09528380373584
    vertex 15.22162940046484 -4.511946372076636e-14 22.095283803735846
  endloop
endfacet
facet normal 0.0 -1.0 0.0
  outer loop
    vertex 15.22162940046484 -4.511946372076636e-14 22.095283803735846
    vertex 28.278370599535148 4.511946372076636e-14 22.09528380373584
    vertex 28.5081415712958 0.0 22.650000000000045
  endloop
endfacet
facet normal 0.0 -1.0 0.0
  outer loop
    vertex 15.22162940046484 -4.511946372076636e-14 22.095283803735846
    vertex 28.5081415712958 0.0 22.650000000000045
    vertex 14.991858428704191 -4.511946372076636e-14 22.650000000000045
  endloop
endfacet
facet normal 0.0 -1.0 0.0
  outer loop
    vertex 14.991858428704191 -4.511946372076636e-14 22.650000000000045
    vertex 28.5081415712958 0.0 22.650000000000045
    vertex 28.87365440327093 0.0 23.12634559672913
  endloop
endfacet
facet normal 0.0 -1.0 0.0
  outer loop
    vertex 14.991858428704191 -4.511946372076636e-14 22.650000000000045
    vertex 28.87365440327093 0.0 23.12634559672913
    vertex 14.626345596729058 -9.023892744153272e-14 23.126345596729156
  endloop
endfacet
facet normal 0.0 -1.0 0.0
  outer loop
    vertex 14.626345596729058 -9.023892744153272e-14 23.126345596729156
    vertex 28.87365440327093 0.0 23.12634559672913
    vertex 29.350000000000026 0.0 23.491858428704234
  endloop
endfacet
facet normal 0.0 -1.0 0.0
  outer loop
    vertex 14.626345596729058 -9.023892744153272e-14 23.126345596729156
    vertex 29.350000000000026 0.0 23.491858428704234
    vertex 14.149999999999963 -6.767919558114953e-14 23.491858428704237
  endloop
endfacet
facet normal 0.0 -1.0 0.0
  outer loop
    vertex 14.149999999999963 -6.767919558114953e-14 23.491858428704237
    vertex 29.350000000000026 0.0 23.491858428704234
    vertex 29.904716196264207 -2.255973186038318e-14 23.721629400464945
  endloop
endfacet
facet normal 0.0 -1.0 0.0
  outer loop
    vertex 14.149999999999963 -6.767919558114953e-14 23.491858428704237
    vertex 29.904716196264207 -2.255973186038318e-14 23.721629400464945
    vertex 13.595283803735782 -9.023892744153272e-14 23.721629400464927
  endloop
endfacet
facet normal 0.0 -1.0 0.0
  outer loop
    vertex 13.595283803735782 -9.023892744153272e-14 23.721629400464927
    vertex 29.904716196264207 -2.255973186038318e-14 23.721629400464945
    vertex 12.999999999999998 -4.511946372076636e-14 23.80000000000003
  endloop
endfacet
facet normal 0.0 -1.0 0.0
  outer loop
    vertex 12.999999999999998 -4.511946372076636e-14 23.80000000000003
    vertex 29.904716196264207 -2.255973186038318e-14 23.721629400464945
    vertex 30.499999999999968 0.0 23.80000000000004
  endloop
endfacet
facet normal 0.0 -1.0 0.0
  outer loop
    vertex 43.499999999999964 0.0 9.023892744153272e-14
    vertex 31.095283803735796 -2.255973186038318e-14 13.278370599535197
    vertex 30.499999999999968 -4.511946372076636e-14 13.200000000000106
  endloop
endfacet
facet normal 0.0 -1.0 0.0
  outer loop
    vertex 31.095283803735796 -2.255973186038318e-14 13.278370599535197
    vertex 43.499999999999964 0.0 9.023892744153272e-14
    vertex 31.649999999999977 -2.255973186038318e-14 13.508141571295903
  endloop
endfacet
facet normal 0.0 -1.0 0.0
  outer loop
    vertex 31.649999999999977 -2.255973186038318e-14 13.508141571295903
    vertex 43.499999999999964 0.0 9.023892744153272e-14
    vertex 32.126345596729024 -6.767919558114953e-14 13.873654403271003
  endloop
endfacet
facet normal 0.0 -1.0 0.0
  outer loop
    vertex 32.126345596729024 -6.767919558114953e-14 13.873654403271003
    vertex 43.499999999999964 0.0 9.023892744153272e-14
    vertex 32.491858428704205 -2.255973186038318e-14 14.350000000000081
  endloop
endfacet
facet normal 0.0 -1.0 0.0
  outer loop
    vertex 32.491858428704205 -2.255973186038318e-14 14.350000000000081
    vertex 43.499999999999964 0.0 9.023892744153272e-14
    vertex 43.499999999999964 0.0 31.500000000000043
  endloop
endfacet
facet normal 0.0 -1.0 0.0
  outer loop
    vertex 32.491858428704205 -2.255973186038318e-14 14.350000000000081
    vertex 43.499999999999964 0.0 31.500000000000043
    vertex 32.721629400464856 0.0 14.904716196264335
  endloop
endfacet
facet normal 0.0 -1.0 0.0
  outer loop
    vertex 32.721629400464856 0.0 14.904716196264335
    vertex 43.499999999999964 0.0 31.500000000000043
    vertex 32.79999999999998 -2.255973186038318e-14 15.500000000000078
  endloop
endfacet
facet normal 0.0 -1.0 0.0
  outer loop
    vertex 32.79999999999998 -2.255973186038318e-14 15.500000000000078
    vertex 43.499999999999964 0.0 31.500000000000043
    vertex 32.79999999999998 0.0 21.500000000000135
  endloop
endfacet
facet normal 0.0 -1.0 0.0
  outer loop
    vertex 32.79999999999998 0.0 21.500000000000135
    vertex 43.499999999999964 0.0 31.500000000000043
    vertex 32.721629400464856 4.511946372076636e-14 22.09528380373584
  endloop
endfacet
facet normal 0.0 -1.0 0.0
  outer loop
    vertex 32.721629400464856 4.511946372076636e-14 22.09528380373584
    vertex 43.499999999999964 0.0 31.500000000000043
    vertex 32.491858428704205 -2.255973186038318e-14 22.650000000000045
  endloop
endfacet
facet normal 0.0 -1.0 0.0
  outer loop
    vertex 32.491858428704205 -2.255973186038318e-14 22.650000000000045
    vertex 43.499999999999964 0.0 31.500000000000043
    vertex 32.126345596729024 0.0 23.126345596729127
  endloop
endfacet
facet normal 0.0 -1.0 0.0
  outer loop
    vertex 32.126345596729024 0.0 23.126345596729127
    vertex 43.499999999999964 0.0 31.500000000000043
    vertex 31.649999999999977 0.0 23.49185842870422
  endloop
endfacet
facet normal 0.0 -1.0 0.0
  outer loop
    vertex 31.649999999999977 0.0 23.49185842870422
    vertex 43.499999999999964 0.0 31.500000000000043
    vertex 31.095283803735796 -2.255973186038318e-14 23.721629400464945
  endloop
endfacet
facet normal 0.0 -1.0 0.0
  outer loop
    vertex 31.095283803735796 -2.255973186038318e-14 23.721629400464945
    vertex 43.499999999999964 0.0 31.500000000000043
    vertex 30.499999999999968 0.0 23.80000000000004
  endloop
endfacet
facet normal 0.0 -1.0 0.0
  outer loop
    vertex 0.0 0.0 0.0
    vertex 11.008141571295761 -4.511946372076636e-14 14.350000000000069
    vertex 0.0 0.0 31.500000000000043
  endloop
endfacet
facet normal 0.0 -1.0 0.0
  outer loop
    vertex 11.008141571295761 -4.511946372076636e-14 14.350000000000069
    vertex 0.0 0.0 0.0
    vertex 11.37365440327094 -9.023892744153272e-14 13.873654403271015
  endloop
endfacet
facet normal 0.0 -1.0 0.0
  outer loop
    vertex 11.37365440327094 -9.023892744153272e-14 13.873654403271015
    vertex 0.0 0.0 0.0
    vertex 11.849999999999989 -9.023892744153272e-14 13.508141571295898
  endloop
endfacet
facet normal 0.0 -1.0 0.0
  outer loop
    vertex 11.849999999999989 -9.023892744153272e-14 13.508141571295898
    vertex 0.0 0.0 0.0
    vertex 43.499999999999964 0.0 9.023892744153272e-14
  endloop
endfacet
facet normal 0.0 -1.0 0.0
  outer loop
    vertex 11.849999999999989 -9.023892744153272e-14 13.508141571295898
    vertex 43.499999999999964 0.0 9.023892744153272e-14
    vertex 12.40471619626417 -4.511946372076636e-14 13.278370599535208
  endloop
endfacet
facet normal 0.0 -1.0 0.0
  outer loop
    vertex 12.40471619626417 -4.511946372076636e-14 13.278370599535208
    vertex 43.499999999999964 0.0 9.023892744153272e-14
    vertex 12.999999999999998 -9.023892744153272e-14 13.200000000000111
  endloop
endfacet
facet normal 0.0 -1.0 0.0
  outer loop
    vertex 12.999999999999998 -9.023892744153272e-14 13.200000000000111
    vertex 43.499999999999964 0.0 9.023892744153272e-14
    vertex 30.499999999999968 -4.511946372076636e-14 13.200000000000106
  endloop
endfacet
facet normal 0.0 -1.0 0.0
  outer loop
    vertex 0.0 0.0 31.500000000000043
    vertex 11.008141571295761 -4.511946372076636e-14 14.350000000000069
    vertex 10.778370599535156 -4.511946372076636e-14 14.90471619626434
  endloop
endfacet
facet normal 0.0 -1.0 0.0
  outer loop
    vertex 0.0 0.0 31.500000000000043
    vertex 10.778370599535156 -4.511946372076636e-14 14.90471619626434
    vertex 10.69999999999998 0.0 15.500000000000044
  endloop
endfacet
facet normal 0.0 -1.0 0.0
  outer loop
    vertex 0.0 0.0 31.500000000000043
    vertex 10.69999999999998 0.0 15.500000000000044
    vertex 10.69999999999998 -9.023892744153272e-14 21.500000000000114
  endloop
endfacet
facet normal 0.0 -1.0 0.0
  outer loop
    vertex 0.0 0.0 31.500000000000043
    vertex 10.69999999999998 -9.023892744153272e-14 21.500000000000114
    vertex 10.778370599535156 0.0 22.095283803735835
  endloop
endfacet
facet normal 0.0 -1.0 0.0
  outer loop
    vertex 0.0 0.0 31.500000000000043
    vertex 10.778370599535156 0.0 22.095283803735835
    vertex 11.008141571295761 -4.511946372076636e-14 22.65000000000005
  endloop
endfacet
facet normal 0.0 -1.0 0.0
  outer loop
    vertex 0.0 0.0 31.500000000000043
    vertex 11.008141571295761 -4.511946372076636e-14 22.65000000000005
    vertex 11.37365440327094 -4.511946372076636e-14 23.126345596729088
  endloop
endfacet
facet normal 0.0 -1.0 0.0
  outer loop
    vertex 0.0 0.0 31.500000000000043
    vertex 11.37365440327094 -4.511946372076636e-14 23.126345596729088
    vertex 11.849999999999989 -4.511946372076636e-14 23.491858428704205
  endloop
endfacet
facet normal 0.0 -1.0 0.0
  outer loop
    vertex 0.0 0.0 31.500000000000043
    vertex 11.849999999999989 -4.511946372076636e-14 23.491858428704205
    vertex 12.40471619626417 -9.023892744153272e-14 23.721629400464927
  endloop
endfacet
facet normal 0.0 -1.0 0.0
  outer loop
    vertex 0.0 0.0 31.500000000000043
    vertex 12.40471619626417 -9.023892744153272e-14 23.721629400464927
    vertex 12.999999999999998 -4.511946372076636e-14 23.80000000000003
  endloop
endfacet
facet normal 0.0 -1.0 0.0
  outer loop
    vertex 0.0 0.0 31.500000000000043
    vertex 12.999999999999998 -4.511946372076636e-14 23.80000000000003
    vertex 30.499999999999968 0.0 23.80000000000004
  endloop
endfacet
facet normal 0.0 -1.0 0.0
  outer loop
    vertex 0.0 0.0 31.500000000000043
    vertex 30.499999999999968 0.0 23.80000000000004
    vertex 43.499999999999964 0.0 31.500000000000043
  endloop
endfacet
facet normal 1.0 -0.0 -0.0
  outer loop
    vertex 39.99999999999997 19.99999999999992 1.5000000000000537
    vertex 39.99999999999997 4.9999999999999005 16.500000000000107
    vertex 39.99999999999997 4.999999999999878 1.5000000000000762
  endloop
endfacet
facet normal 1.0 -0.0 -0.0
  outer loop
    vertex 5.49999999999999 20.000000000000007 1.5000000000000084
    vertex 5.49999999999999 4.999999999999946 16.500000000000117
    vertex 5.49999999999999 4.999999999999923 1.5000000000000875
  endloop
endfacet
endsolid support douille tube fluo
